<svg height="2270" width="720" xmlns="http://www.w3.org/2000/svg">
<rect height="2270" fill="#555" width="720"></rect>
<text fill="#7f7" font-family="Courier New" font-size="12" xml:space="preserve">
<tspan x="10" y="26">17 megabytes installed</tspan>
<tspan x="10" y="42"></tspan>
<tspan x="10" y="58">node_modules</tspan>
<tspan x="10" y="74">└─┬ gulp-svg-sprites@4.1.1 </tspan>
<tspan x="10" y="90">  ├─┬ gulp-util@3.0.7 </tspan>
<tspan x="10" y="106">  │ ├── array-differ@1.0.0 </tspan>
<tspan x="10" y="122">  │ ├── array-uniq@1.0.3 </tspan>
<tspan x="10" y="138">  │ ├── beeper@1.1.1 </tspan>
<tspan x="10" y="154">  │ ├─┬ chalk@1.1.3 </tspan>
<tspan x="10" y="170">  │ │ ├── ansi-styles@2.2.1 </tspan>
<tspan x="10" y="186">  │ │ ├── escape-string-regexp@1.0.5 </tspan>
<tspan x="10" y="202">  │ │ ├─┬ has-ansi@2.0.0 </tspan>
<tspan x="10" y="218">  │ │ │ └── ansi-regex@2.1.1 </tspan>
<tspan x="10" y="234">  │ │ ├── strip-ansi@3.0.1 </tspan>
<tspan x="10" y="250">  │ │ └── supports-color@2.0.0 </tspan>
<tspan x="10" y="266">  │ ├─┬ dateformat@1.0.12 </tspan>
<tspan x="10" y="282">  │ │ ├── get-stdin@4.0.1 </tspan>
<tspan x="10" y="298">  │ │ └─┬ meow@3.7.0 </tspan>
<tspan x="10" y="314">  │ │   ├─┬ camelcase-keys@2.1.0 </tspan>
<tspan x="10" y="330">  │ │   │ └── camelcase@2.1.1 </tspan>
<tspan x="10" y="346">  │ │   ├── decamelize@1.2.0 </tspan>
<tspan x="10" y="362">  │ │   ├─┬ loud-rejection@1.6.0 </tspan>
<tspan x="10" y="378">  │ │   │ ├─┬ currently-unhandled@0.4.1 </tspan>
<tspan x="10" y="394">  │ │   │ │ └── array-find-index@1.0.2 </tspan>
<tspan x="10" y="410">  │ │   │ └── signal-exit@3.0.2 </tspan>
<tspan x="10" y="426">  │ │   ├── map-obj@1.0.1 </tspan>
<tspan x="10" y="442">  │ │   ├─┬ normalize-package-data@2.3.6 </tspan>
<tspan x="10" y="458">  │ │   │ ├── hosted-git-info@2.4.2 </tspan>
<tspan x="10" y="474">  │ │   │ ├─┬ is-builtin-module@1.0.0 </tspan>
<tspan x="10" y="490">  │ │   │ │ └── builtin-modules@1.1.1 </tspan>
<tspan x="10" y="506">  │ │   │ ├── semver@5.3.0 </tspan>
<tspan x="10" y="522">  │ │   │ └─┬ validate-npm-package-license@3.0.1 </tspan>
<tspan x="10" y="538">  │ │   │   ├─┬ spdx-correct@1.0.2 </tspan>
<tspan x="10" y="554">  │ │   │   │ └── spdx-license-ids@1.2.2 </tspan>
<tspan x="10" y="570">  │ │   │   └── spdx-expression-parse@1.0.4 </tspan>
<tspan x="10" y="586">  │ │   ├── object-assign@4.1.1 </tspan>
<tspan x="10" y="602">  │ │   ├─┬ read-pkg-up@1.0.1 </tspan>
<tspan x="10" y="618">  │ │   │ ├─┬ find-up@1.1.2 </tspan>
<tspan x="10" y="634">  │ │   │ │ ├── path-exists@2.1.0 </tspan>
<tspan x="10" y="650">  │ │   │ │ └─┬ pinkie-promise@2.0.1 </tspan>
<tspan x="10" y="666">  │ │   │ │   └── pinkie@2.0.4 </tspan>
<tspan x="10" y="682">  │ │   │ └─┬ read-pkg@1.1.0 </tspan>
<tspan x="10" y="698">  │ │   │   ├─┬ load-json-file@1.1.0 </tspan>
<tspan x="10" y="714">  │ │   │   │ ├── graceful-fs@4.1.11 </tspan>
<tspan x="10" y="730">  │ │   │   │ ├─┬ parse-json@2.2.0 </tspan>
<tspan x="10" y="746">  │ │   │   │ │ └─┬ error-ex@1.3.1 </tspan>
<tspan x="10" y="762">  │ │   │   │ │   └── is-arrayish@0.2.1 </tspan>
<tspan x="10" y="778">  │ │   │   │ ├── pify@2.3.0 </tspan>
<tspan x="10" y="794">  │ │   │   │ └─┬ strip-bom@2.0.0 </tspan>
<tspan x="10" y="810">  │ │   │   │   └── is-utf8@0.2.1 </tspan>
<tspan x="10" y="826">  │ │   │   └── path-type@1.1.0 </tspan>
<tspan x="10" y="842">  │ │   ├─┬ redent@1.0.0 </tspan>
<tspan x="10" y="858">  │ │   │ ├─┬ indent-string@2.1.0 </tspan>
<tspan x="10" y="874">  │ │   │ │ └─┬ repeating@2.0.1 </tspan>
<tspan x="10" y="890">  │ │   │ │   └─┬ is-finite@1.0.2 </tspan>
<tspan x="10" y="906">  │ │   │ │     └── number-is-nan@1.0.1 </tspan>
<tspan x="10" y="922">  │ │   │ └── strip-indent@1.0.1 </tspan>
<tspan x="10" y="938">  │ │   └── trim-newlines@1.0.0 </tspan>
<tspan x="10" y="954">  │ ├─┬ fancy-log@1.3.0 </tspan>
<tspan x="10" y="970">  │ │ └── time-stamp@1.0.1 </tspan>
<tspan x="10" y="986">  │ ├─┬ gulplog@1.0.0 </tspan>
<tspan x="10" y="1002">  │ │ └── glogg@1.0.0 </tspan>
<tspan x="10" y="1018">  │ ├─┬ has-gulplog@0.1.0 </tspan>
<tspan x="10" y="1034">  │ │ └── sparkles@1.0.0 </tspan>
<tspan x="10" y="1050">  │ ├── lodash._reescape@3.0.0 </tspan>
<tspan x="10" y="1066">  │ ├── lodash._reevaluate@3.0.0 </tspan>
<tspan x="10" y="1082">  │ ├── lodash._reinterpolate@3.0.0 </tspan>
<tspan x="10" y="1098">  │ ├─┬ lodash.template@3.6.2 </tspan>
<tspan x="10" y="1114">  │ │ ├── lodash._basecopy@3.0.1 </tspan>
<tspan x="10" y="1130">  │ │ ├── lodash._basetostring@3.0.1 </tspan>
<tspan x="10" y="1146">  │ │ ├── lodash._basevalues@3.0.0 </tspan>
<tspan x="10" y="1162">  │ │ ├── lodash._isiterateecall@3.0.9 </tspan>
<tspan x="10" y="1178">  │ │ ├─┬ lodash.escape@3.2.0 </tspan>
<tspan x="10" y="1194">  │ │ │ └── lodash._root@3.0.1 </tspan>
<tspan x="10" y="1210">  │ │ ├─┬ lodash.keys@3.1.2 </tspan>
<tspan x="10" y="1226">  │ │ │ ├── lodash._getnative@3.9.1 </tspan>
<tspan x="10" y="1242">  │ │ │ ├── lodash.isarguments@3.1.0 </tspan>
<tspan x="10" y="1258">  │ │ │ └── lodash.isarray@3.0.4 </tspan>
<tspan x="10" y="1274">  │ │ ├── lodash.restparam@3.6.1 </tspan>
<tspan x="10" y="1290">  │ │ └── lodash.templatesettings@3.1.1 </tspan>
<tspan x="10" y="1306">  │ ├── minimist@1.2.0 </tspan>
<tspan x="10" y="1322">  │ ├─┬ multipipe@0.1.2 </tspan>
<tspan x="10" y="1338">  │ │ └─┬ duplexer2@0.0.2 </tspan>
<tspan x="10" y="1354">  │ │   └─┬ readable-stream@1.1.14 </tspan>
<tspan x="10" y="1370">  │ │     └── isarray@0.0.1 </tspan>
<tspan x="10" y="1386">  │ ├── object-assign@3.0.0 </tspan>
<tspan x="10" y="1402">  │ ├── replace-ext@0.0.1 </tspan>
<tspan x="10" y="1418">  │ └── vinyl@0.5.3 </tspan>
<tspan x="10" y="1434">  ├── lodash@4.14.1 </tspan>
<tspan x="10" y="1450">  ├── q@1.4.1 </tspan>
<tspan x="10" y="1466">  ├─┬ svg-sprite-data@3.1.0 </tspan>
<tspan x="10" y="1482">  │ ├── async@2.0.1 </tspan>
<tspan x="10" y="1498">  │ ├── css-selector-parser@1.1.0 </tspan>
<tspan x="10" y="1514">  │ ├── cssom@0.3.1 </tspan>
<tspan x="10" y="1530">  │ ├─┬ svg-cleaner@0.0.4 </tspan>
<tspan x="10" y="1546">  │ │ ├─┬ cheerio@0.9.2 </tspan>
<tspan x="10" y="1562">  │ │ │ ├─┬ cheerio-select@0.0.3 </tspan>
<tspan x="10" y="1578">  │ │ │ │ └─┬ CSSselect@0.7.0 </tspan>
<tspan x="10" y="1594">  │ │ │ │   ├── boolbase@1.0.0 </tspan>
<tspan x="10" y="1610">  │ │ │ │   ├── CSSwhat@0.4.7 </tspan>
<tspan x="10" y="1626">  │ │ │ │   ├── domutils@1.4.3 </tspan>
<tspan x="10" y="1642">  │ │ │ │   └── nth-check@1.0.1 </tspan>
<tspan x="10" y="1658">  │ │ │ ├── entities@0.5.0 </tspan>
<tspan x="10" y="1674">  │ │ │ └─┬ htmlparser2@2.6.0 </tspan>
<tspan x="10" y="1690">  │ │ │   ├── domelementtype@1.3.0 </tspan>
<tspan x="10" y="1706">  │ │ │   ├── domhandler@2.0.3 </tspan>
<tspan x="10" y="1722">  │ │ │   └── domutils@1.0.1 </tspan>
<tspan x="10" y="1738">  │ │ ├─┬ commander@1.0.5 </tspan>
<tspan x="10" y="1754">  │ │ │ └── keypress@0.1.0 </tspan>
<tspan x="10" y="1770">  │ │ ├── cssom@0.2.5 </tspan>
<tspan x="10" y="1786">  │ │ └── underscore@1.8.3 </tspan>
<tspan x="10" y="1802">  │ └─┬ xml-parser@1.2.1 </tspan>
<tspan x="10" y="1818">  │   └─┬ debug@2.6.3 </tspan>
<tspan x="10" y="1834">  │     └── ms@0.7.2 </tspan>
<tspan x="10" y="1850">  ├─┬ svgo@0.6.6 </tspan>
<tspan x="10" y="1866">  │ ├── coa@1.0.1 </tspan>
<tspan x="10" y="1882">  │ ├── colors@1.1.2 </tspan>
<tspan x="10" y="1898">  │ ├─┬ csso@2.0.0 </tspan>
<tspan x="10" y="1914">  │ │ ├── clap@1.1.3 </tspan>
<tspan x="10" y="1930">  │ │ └── source-map@0.5.6 </tspan>
<tspan x="10" y="1946">  │ ├─┬ js-yaml@3.6.1 </tspan>
<tspan x="10" y="1962">  │ │ ├─┬ argparse@1.0.9 </tspan>
<tspan x="10" y="1978">  │ │ │ └── sprintf-js@1.0.3 </tspan>
<tspan x="10" y="1994">  │ │ └── esprima@2.7.3 </tspan>
<tspan x="10" y="2010">  │ ├─┬ mkdirp@0.5.1 </tspan>
<tspan x="10" y="2026">  │ │ └── minimist@0.0.8 </tspan>
<tspan x="10" y="2042">  │ ├── sax@1.2.2 </tspan>
<tspan x="10" y="2058">  │ └── whet.extend@0.9.9 </tspan>
<tspan x="10" y="2074">  ├─┬ through2@2.0.1 </tspan>
<tspan x="10" y="2090">  │ ├─┬ readable-stream@2.0.6 </tspan>
<tspan x="10" y="2106">  │ │ ├── core-util-is@1.0.2 </tspan>
<tspan x="10" y="2122">  │ │ ├── inherits@2.0.3 </tspan>
<tspan x="10" y="2138">  │ │ ├── isarray@1.0.0 </tspan>
<tspan x="10" y="2154">  │ │ ├── process-nextick-args@1.0.7 </tspan>
<tspan x="10" y="2170">  │ │ ├── string_decoder@0.10.31 </tspan>
<tspan x="10" y="2186">  │ │ └── util-deprecate@1.0.2 </tspan>
<tspan x="10" y="2202">  │ └── xtend@4.0.1 </tspan>
<tspan x="10" y="2218">  └─┬ vinyl@1.2.0 </tspan>
<tspan x="10" y="2234">    ├── clone@1.0.2 </tspan>
<tspan x="10" y="2250">    └── clone-stats@0.0.1</tspan>
</text>
</svg>
